<?xml version="1.0" encoding="iso-8859-1"?>
<!-- Generator: Adobe Illustrator 19.0.0, SVG Export Plug-In . SVG Version: 6.00 Build 0)  -->
<svg xmlns="http://www.w3.org/2000/svg" xmlns:xlink="http://www.w3.org/1999/xlink" version="1.1" id="Capa_1" x="0px" y="0px" viewBox="0 0 512 512" style="enable-background:new 0 0 512 512;" xml:space="preserve">
<path style="fill:#FE834D;" d="M472.425,39.608v127.714l-236.9,109.186l21.837-78.98c-10.049-19.208-15.328-40.685-15.328-62.512  c0-74.431,60.552-134.983,134.983-134.983C414.232,0.033,447.978,15.171,472.425,39.608z"/>
<path style="fill:#FE5F1A;" d="M472.425,39.608C496.862,64.055,512,97.801,512,135.016c0,74.431-60.552,134.983-134.983,134.983  c-21.827,0-43.305-5.279-62.512-15.328l-78.98,21.837L472.425,39.608z"/>
<g>
	<rect x="302.022" y="120.015" style="fill:#FFFFFF;" width="29.996" height="29.996"/>
	<rect x="422.006" y="120.015" style="fill:#FFFFFF;" width="29.996" height="29.996"/>
	<rect x="362.014" y="120.015" style="fill:#FFFFFF;" width="29.996" height="29.996"/>
</g>
<path style="fill:#027372;" d="M290.965,369.541l-74.237-74.237H114.212v102.517c71.472,71.472,160.012,114.144,236.844,114.146  c43.277,0,79.951-13.801,106.06-39.909l21.21-21.21L343.991,316.515L290.965,369.541z"/>
<path style="fill:#02ACAB;" d="M142.492,221.068l53.026-53.026L61.184,33.709l-21.21,21.21  C3.135,91.758-8.768,148.385,6.459,214.369c14.645,63.462,52.912,128.614,107.752,183.454l102.517-102.517L142.492,221.068z"/>
<g>
</g>
<g>
</g>
<g>
</g>
<g>
</g>
<g>
</g>
<g>
</g>
<g>
</g>
<g>
</g>
<g>
</g>
<g>
</g>
<g>
</g>
<g>
</g>
<g>
</g>
<g>
</g>
<g>
</g>
</svg>
